<mxfile host="65bd71144e">
    <diagram id="x9EdjgLe3Sq_I7eFu2eD" name="Page-1">
        <mxGraphModel dx="1051" dy="790" grid="1" gridSize="10" guides="1" tooltips="1" connect="1" arrows="1" fold="1" page="1" pageScale="1" pageWidth="1169" pageHeight="827" background="#ffffff" math="0" shadow="1">
            <root>
                <mxCell id="0"/>
                <mxCell id="1" parent="0"/>
                <mxCell id="4" value="" style="edgeStyle=none;html=1;" edge="1" parent="1" source="2" target="3">
                    <mxGeometry relative="1" as="geometry"/>
                </mxCell>
                <mxCell id="2" value="&lt;p style=&quot;box-sizing: border-box ; margin: 0px ; padding: 0px ; color: rgb(0 , 0 , 0) ; font-family: &amp;#34;helvetica neue&amp;#34; , &amp;#34;helvetica&amp;#34; , &amp;#34;pingfang sc&amp;#34; , &amp;#34;hiragino sans gb&amp;#34; , &amp;#34;microsoft yahei&amp;#34; , &amp;#34;\5 fae8f6f96c59ed1&amp;#34; , &amp;#34;arial&amp;#34; , sans-serif ; font-size: 16px ; background-color: rgb(255 , 255 , 255) ; line-height: 1.2&quot;&gt;&lt;span style=&quot;box-sizing: border-box ; color: rgb(25 , 25 , 25) ; font-size: 10pt&quot;&gt;创建最小最小堆&lt;/span&gt;&lt;/p&gt;&lt;p style=&quot;box-sizing: border-box ; margin: 0px ; padding: 0px ; color: rgb(0 , 0 , 0) ; font-family: &amp;#34;helvetica neue&amp;#34; , &amp;#34;helvetica&amp;#34; , &amp;#34;pingfang sc&amp;#34; , &amp;#34;hiragino sans gb&amp;#34; , &amp;#34;microsoft yahei&amp;#34; , &amp;#34;\5 fae8f6f96c59ed1&amp;#34; , &amp;#34;arial&amp;#34; , sans-serif ; font-size: 16px ; background-color: rgb(255 , 255 , 255) ; line-height: 1.2&quot;&gt;&lt;span style=&quot;box-sizing: border-box ; color: rgb(25 , 25 , 25) ; font-size: 10pt&quot;&gt;（大小等于文件个数，时间戳小的在堆顶&lt;/span&gt;&lt;/p&gt;" style="rounded=0;whiteSpace=wrap;html=1;" vertex="1" parent="1">
                    <mxGeometry x="126.25" y="160" width="270" height="60" as="geometry"/>
                </mxCell>
                <mxCell id="6" value="" style="edgeStyle=none;html=1;" edge="1" parent="1" source="3" target="5">
                    <mxGeometry relative="1" as="geometry"/>
                </mxCell>
                <mxCell id="3" value="&lt;span style=&quot;color: rgb(25 , 25 , 25) ; font-size: 13.3333px ; background-color: rgb(255 , 255 , 255)&quot;&gt;读取文件记录，插入堆中&lt;/span&gt;" style="whiteSpace=wrap;html=1;rounded=0;" vertex="1" parent="1">
                    <mxGeometry x="173.75" y="300" width="175" height="60" as="geometry"/>
                </mxCell>
                <mxCell id="8" value="" style="edgeStyle=none;html=1;" edge="1" parent="1" source="5" target="7">
                    <mxGeometry relative="1" as="geometry"/>
                </mxCell>
                <mxCell id="9" value="是" style="edgeLabel;html=1;align=center;verticalAlign=middle;resizable=0;points=[];" vertex="1" connectable="0" parent="8">
                    <mxGeometry x="-0.2222" y="-3" relative="1" as="geometry">
                        <mxPoint as="offset"/>
                    </mxGeometry>
                </mxCell>
                <mxCell id="11" value="" style="edgeStyle=none;html=1;" edge="1" parent="1" source="5" target="10">
                    <mxGeometry relative="1" as="geometry">
                        <Array as="points">
                            <mxPoint x="540" y="460"/>
                        </Array>
                    </mxGeometry>
                </mxCell>
                <mxCell id="12" value="否" style="edgeLabel;html=1;align=center;verticalAlign=middle;resizable=0;points=[];" vertex="1" connectable="0" parent="11">
                    <mxGeometry x="-0.3714" y="-2" relative="1" as="geometry">
                        <mxPoint as="offset"/>
                    </mxGeometry>
                </mxCell>
                <mxCell id="5" value="&lt;p style=&quot;box-sizing: border-box ; margin: 0px ; padding: 0px ; color: rgb(0 , 0 , 0) ; font-family: &amp;#34;helvetica neue&amp;#34; , &amp;#34;helvetica&amp;#34; , &amp;#34;pingfang sc&amp;#34; , &amp;#34;hiragino sans gb&amp;#34; , &amp;#34;microsoft yahei&amp;#34; , &amp;#34;\5 fae8f6f96c59ed1&amp;#34; , &amp;#34;arial&amp;#34; , sans-serif ; font-size: 16px ; background-color: rgb(255 , 255 , 255) ; line-height: 1.2&quot;&gt;&lt;span style=&quot;box-sizing: border-box ; color: rgb(25 , 25 , 25) ; font-size: 10pt&quot;&gt;HasNext&lt;/span&gt;&lt;/p&gt;&lt;p style=&quot;box-sizing: border-box ; margin: 0px ; padding: 0px ; color: rgb(0 , 0 , 0) ; font-family: &amp;#34;helvetica neue&amp;#34; , &amp;#34;helvetica&amp;#34; , &amp;#34;pingfang sc&amp;#34; , &amp;#34;hiragino sans gb&amp;#34; , &amp;#34;microsoft yahei&amp;#34; , &amp;#34;\5 fae8f6f96c59ed1&amp;#34; , &amp;#34;arial&amp;#34; , sans-serif ; font-size: 16px ; background-color: rgb(255 , 255 , 255) ; line-height: 1.2&quot;&gt;&lt;span style=&quot;box-sizing: border-box ; color: rgb(25 , 25 , 25) ; font-size: 10pt&quot;&gt;（堆不为空）&lt;/span&gt;&lt;/p&gt;" style="rhombus;whiteSpace=wrap;html=1;rounded=0;" vertex="1" parent="1">
                    <mxGeometry x="190" y="410" width="142.5" height="100" as="geometry"/>
                </mxCell>
                <mxCell id="7" value="&lt;p style=&quot;box-sizing: border-box ; margin: 0px ; padding: 0px ; color: rgb(0 , 0 , 0) ; font-family: &amp;#34;helvetica neue&amp;#34; , &amp;#34;helvetica&amp;#34; , &amp;#34;pingfang sc&amp;#34; , &amp;#34;hiragino sans gb&amp;#34; , &amp;#34;microsoft yahei&amp;#34; , &amp;#34;\5 fae8f6f96c59ed1&amp;#34; , &amp;#34;arial&amp;#34; , sans-serif ; font-size: 16px ; background-color: rgb(255 , 255 , 255) ; line-height: 1.2&quot;&gt;&lt;span style=&quot;box-sizing: border-box ; color: rgb(25 , 25 , 25) ; font-size: 10pt&quot;&gt;Consume&lt;/span&gt;&lt;/p&gt;&lt;p style=&quot;box-sizing: border-box ; margin: 0px ; padding: 0px ; color: rgb(0 , 0 , 0) ; font-family: &amp;#34;helvetica neue&amp;#34; , &amp;#34;helvetica&amp;#34; , &amp;#34;pingfang sc&amp;#34; , &amp;#34;hiragino sans gb&amp;#34; , &amp;#34;microsoft yahei&amp;#34; , &amp;#34;\5 fae8f6f96c59ed1&amp;#34; , &amp;#34;arial&amp;#34; , sans-serif ; font-size: 16px ; background-color: rgb(255 , 255 , 255) ; line-height: 1.2&quot;&gt;&lt;span style=&quot;box-sizing: border-box ; color: rgb(25 , 25 , 25) ; font-size: 10pt&quot;&gt;（返回堆顶元素，并将其对应文件的下一条记录插入堆中）&lt;/span&gt;&lt;/p&gt;" style="whiteSpace=wrap;html=1;rounded=0;" vertex="1" parent="1">
                    <mxGeometry x="133.75" y="580" width="255" height="60" as="geometry"/>
                </mxCell>
                <mxCell id="10" value="&lt;span style=&quot;color: rgb(25 , 25 , 25) ; font-size: 13.3333px ; background-color: rgb(255 , 255 , 255)&quot;&gt;文件读取结束&lt;/span&gt;" style="whiteSpace=wrap;html=1;rounded=0;" vertex="1" parent="1">
                    <mxGeometry x="480" y="160" width="120" height="60" as="geometry"/>
                </mxCell>
                <mxCell id="13" value="&lt;p style=&quot;box-sizing: border-box ; margin: 0px ; padding: 0px ; color: rgb(0 , 0 , 0) ; font-family: &amp;#34;helvetica neue&amp;#34; , &amp;#34;helvetica&amp;#34; , &amp;#34;pingfang sc&amp;#34; , &amp;#34;hiragino sans gb&amp;#34; , &amp;#34;microsoft yahei&amp;#34; , &amp;#34;\5 fae8f6f96c59ed1&amp;#34; , &amp;#34;arial&amp;#34; , sans-serif ; font-size: 16px ; background-color: rgb(255 , 255 , 255) ; line-height: 1.2&quot;&gt;&lt;span style=&quot;box-sizing: border-box ; color: rgb(25 , 25 , 25) ; font-size: 10pt&quot;&gt;时间复杂度：O(NMlog(N))&lt;/span&gt;&lt;/p&gt;&lt;p style=&quot;box-sizing: border-box ; margin: 0px ; padding: 0px ; color: rgb(0 , 0 , 0) ; font-family: &amp;#34;helvetica neue&amp;#34; , &amp;#34;helvetica&amp;#34; , &amp;#34;pingfang sc&amp;#34; , &amp;#34;hiragino sans gb&amp;#34; , &amp;#34;microsoft yahei&amp;#34; , &amp;#34;\5 fae8f6f96c59ed1&amp;#34; , &amp;#34;arial&amp;#34; , sans-serif ; font-size: 16px ; background-color: rgb(255 , 255 , 255) ; line-height: 1.2&quot;&gt;&lt;span style=&quot;box-sizing: border-box ; color: rgb(25 , 25 , 25) ; font-size: 10pt&quot;&gt;空间复杂度：O（N）&lt;/span&gt;&lt;/p&gt;" style="rounded=0;whiteSpace=wrap;html=1;" vertex="1" parent="1">
                    <mxGeometry x="680" y="160" width="220" height="60" as="geometry"/>
                </mxCell>
                <mxCell id="14" value="&lt;p style=&quot;box-sizing: border-box ; margin: 0px ; padding: 0px ; color: rgb(0 , 0 , 0) ; font-family: &amp;#34;helvetica neue&amp;#34; , &amp;#34;helvetica&amp;#34; , &amp;#34;pingfang sc&amp;#34; , &amp;#34;hiragino sans gb&amp;#34; , &amp;#34;microsoft yahei&amp;#34; , &amp;#34;\5 fae8f6f96c59ed1&amp;#34; , &amp;#34;arial&amp;#34; , sans-serif ; font-size: 16px ; background-color: rgb(255 , 255 , 255) ; line-height: 1.2&quot;&gt;&lt;span style=&quot;box-sizing: border-box ; color: rgb(25 , 25 , 25) ; font-size: 10pt&quot;&gt;文件操作优化：&amp;nbsp;&amp;nbsp;&lt;/span&gt;&lt;/p&gt;&lt;p style=&quot;box-sizing: border-box ; margin: 0px ; padding: 0px ; color: rgb(0 , 0 , 0) ; font-family: &amp;#34;helvetica neue&amp;#34; , &amp;#34;helvetica&amp;#34; , &amp;#34;pingfang sc&amp;#34; , &amp;#34;hiragino sans gb&amp;#34; , &amp;#34;microsoft yahei&amp;#34; , &amp;#34;\5 fae8f6f96c59ed1&amp;#34; , &amp;#34;arial&amp;#34; , sans-serif ; font-size: 16px ; background-color: rgb(255 , 255 , 255) ; line-height: 1.2&quot;&gt;&lt;span style=&quot;color: rgb(25 , 25 , 25) ; font-size: 10pt&quot;&gt;增加文件缓存层buffer，HasNext和Consume读取缓存，文件读取放入缓存&lt;/span&gt;&lt;/p&gt;&lt;p style=&quot;box-sizing: border-box ; margin: 0px ; padding: 0px ; color: rgb(0 , 0 , 0) ; font-family: &amp;#34;helvetica neue&amp;#34; , &amp;#34;helvetica&amp;#34; , &amp;#34;pingfang sc&amp;#34; , &amp;#34;hiragino sans gb&amp;#34; , &amp;#34;microsoft yahei&amp;#34; , &amp;#34;\5 fae8f6f96c59ed1&amp;#34; , &amp;#34;arial&amp;#34; , sans-serif ; font-size: 16px ; background-color: rgb(255 , 255 , 255) ; line-height: 1.2&quot;&gt;&lt;span style=&quot;box-sizing: border-box ; color: rgb(25 , 25 , 25) ; font-size: 10pt&quot;&gt;具体操作是：流式读取文件，每次读取1kb，放入环形缓存区。                   &lt;/span&gt;&lt;/p&gt;&lt;div&gt;&lt;span style=&quot;box-sizing: border-box ; color: rgb(25 , 25 , 25) ; font-size: 10pt&quot;&gt;&lt;br&gt;&lt;/span&gt;&lt;/div&gt;" style="rounded=0;whiteSpace=wrap;html=1;" vertex="1" parent="1">
                    <mxGeometry x="670" y="330" width="450" height="80" as="geometry"/>
                </mxCell>
            </root>
        </mxGraphModel>
    </diagram>
</mxfile>